# xmcd
#
# Track frame offsets: 
#        150
#        28160
#        61275
#        82680
#        113498
#        141735
#        177350
#        200840
#        222185
#        236468
#        266393
#        288365
#
# Disc length: 4222 seconds
#
# Revision: 2
# Processed by: cddbd v1.5.2PL0 Copyright (c) Steve Scherf et al.
# Submitted via: ExactAudioCopy v0.95b4
#
DISCID=ad107c0c
DTITLE=Peter Hammill - Skeletons Of Songs [CD1)
DYEAR=1978
DGENRE=Progressive Rock
TTITLE0=House With No Door 
TTITLE1=Time Heals 
TTITLE2=This Side Of The Looking-Glass 
TTITLE3=My Room (Waiting For Wonderland) 
TTITLE4=Easy To Slip Away 
TTITLE5=Still Life
TTITLE6=Lizard Play 
TTITLE7=Time For A Change
TTITLE8=Been Alone So Long 
TTITLE9=Modern 
TTITLE10=If I Could 
TTITLE11=Last Frame 
EXTD=
EXTT0=
EXTT1=
EXTT2=
EXTT3=
EXTT4=
EXTT5=
EXTT6=
EXTT7=
EXTT8=
EXTT9=
EXTT10=
EXTT11=
PLAYORDER=
